<?xml version="1.0" encoding="UTF-8" standalone="no"?>
<!DOCTYPE svg PUBLIC "-//W3C//DTD SVG 1.1//EN" "http://www.w3.org/Graphics/SVG/1.1/DTD/svg11.dtd">
<svg width="100%" height="100%" viewBox="0 0 3 3" version="1.1" xmlns="http://www.w3.org/2000/svg" xmlns:xlink="http://www.w3.org/1999/xlink" xml:space="preserve" xmlns:serif="http://www.serif.com/" style="fill-rule:evenodd;clip-rule:evenodd;stroke-linejoin:round;stroke-miterlimit:2;">
    <rect x="1" y="0" width="1" height="3"/>
    <path d="M0,0.5L1,0.5" style="fill:none;"/>
    <path d="M-0,1L1,1L1,-0L0,-0L-0,1Z"/>
    <g transform="matrix(1,0,0,1,0,1.99849)">
        <path d="M0,0.5L1,0.5" style="fill:none;"/>
    </g>
    <g transform="matrix(1,0,0,1,0,1.99849)">
        <path d="M-0,1L1,1L1,0L0,0L-0,1Z"/>
    </g>
    <g transform="matrix(1,0,0,1,2,1.99849)">
        <path d="M0,0.5L1,0.5" style="fill:none;"/>
    </g>
    <g transform="matrix(1,0,0,1,2,1.99849)">
        <path d="M-0,1L1,1L1,0L0,0L-0,1Z"/>
    </g>
</svg>
